<?xml version="1.0" encoding="UTF-8"?>
<svg version="1.1" xmlns="http://www.w3.org/2000/svg" width="256" height="256">
<path d="M0 0 C2.475 0.495 2.475 0.495 5 1 C5.85769012 5.92905695 6.71210233 10.85866656 7.56347656 15.78881836 C7.85359018 17.46605796 8.14460026 19.14314276 8.43652344 20.82006836 C8.85587346 23.22990462 9.27200063 25.64027848 9.6875 28.05078125 C9.81874268 28.80087967 9.94998535 29.55097809 10.08520508 30.32380676 C10.58830697 33.25761879 11 36.01699745 11 39 C13.64 39 16.28 39 19 39 C18.52309796 40.62566606 18.04340334 42.25051311 17.5625 43.875 C17.29566406 44.77992187 17.02882812 45.68484375 16.75390625 46.6171875 C16 49 16 49 15 51 C14.01 51 13.02 51 12 51 C12 55.29 12 59.58 12 64 C14.31 64 16.62 64 19 64 C17.68 67.96 16.36 71.92 15 76 C14.01 76 13.02 76 12 76 C12 81.61 12 87.22 12 93 C18.93 93 25.86 93 33 93 C33 89.37 33 85.74 33 82 C36.3 82 39.6 82 43 82 C42.67 81.01 42.34 80.02 42 79 C41.53146784 73.14334803 42.34568601 68.21357597 45 63 C50.18313291 57.33077349 56.87016577 53.26209811 63.3125 49.1875 C64.20517578 48.61580078 65.09785156 48.04410156 66.01757812 47.45507812 C67.65991344 46.40343979 69.30398588 45.35450515 70.95043945 44.30932617 C72.6463693 43.22591084 74.32553794 42.11630804 76 41 C74.515 40.505 74.515 40.505 73 40 C74 31.42857143 74 31.42857143 75 28 C75.66 28 76.32 28 77 28 C77 27.34 77 26.68 77 26 C78.32 26 79.64 26 81 26 C81 26.66 81 27.32 81 28 C81.66 28 82.32 28 83 28 C84.13764351 32.26616316 85 35.56486311 85 40 C83.515 40.495 83.515 40.495 82 41 C83.5749324 42.04995493 85.14991161 43.09983969 86.72509766 44.14941406 C88.08494774 45.056418 89.44398666 45.96463918 90.80224609 46.87402344 C94.01475166 49.02273052 97.23171418 51.15901285 100.4921875 53.234375 C112.4436497 60.92384444 112.4436497 60.92384444 115.3125 68.4375 C116.24008917 73.24409842 116.55827579 77.32517262 115 82 C118.3 82 121.6 82 125 82 C125 85.63 125 89.26 125 93 C131.93 93 138.86 93 146 93 C146 87.39 146 81.78 146 76 C145.01 76 144.02 76 143 76 C141.02 70.06 141.02 70.06 139 64 C141.31 64 143.62 64 146 64 C146 59.71 146 55.42 146 51 C145.01 51 144.02 51 143 51 C141.02 45.06 141.02 45.06 139 39 C141.64 39 144.28 39 147 39 C147.11275269 38.1793103 147.11275269 38.1793103 147.2277832 37.34204102 C148.90807719 25.17864306 150.76862163 13.07476379 153 1 C154.65 0.67 156.3 0.34 158 0 C160.19614399 7.8814887 161.35789406 15.93043948 162.625 24 C162.85644761 25.45708263 163.08821572 26.91411439 163.3203125 28.37109375 C163.8839072 31.91348321 164.44315283 35.45654283 165 39 C167.31 39 169.62 39 172 39 C171.49202991 43.3177458 170.80317221 47.03302114 169 51 C167.68 51 166.36 51 165 51 C165 55.29 165 59.58 165 64 C167.31 64 169.62 64 172 64 C171.40075776 68.19469571 170.42500059 72.00999834 169 76 C167.68 76 166.36 76 165 76 C165 81.61 165 87.22 165 93 C167.1965625 92.9690625 167.1965625 92.9690625 169.4375 92.9375 C170.95832518 92.91607993 172.48071962 92.92820036 174 93 C175.85581966 94.85581966 175.12004366 97.49398306 175.12442017 99.96286011 C175.12082489 100.81953278 175.11722961 101.67620544 175.11352539 102.55883789 C175.11367142 103.45631241 175.11381744 104.35378693 175.1139679 105.27845764 C175.11326842 108.25988134 175.10547441 111.2412434 175.09765625 114.22265625 C175.09579219 116.28388942 175.09436823 118.34512304 175.09336853 120.40635681 C175.08954237 125.8430401 175.07971126 131.27969686 175.06866455 136.71636963 C175.05845253 142.25947714 175.05387136 147.80258892 175.04882812 153.34570312 C175.03808908 164.23048043 175.02101149 175.11523802 175 186 C110.96551707 186.96727417 47.03448293 186.96727417 -17 186 C-17.0231219 174.02196441 -17.0409143 162.04393409 -17.05181217 150.06588078 C-17.05704134 144.50460589 -17.06413958 138.94334621 -17.07543945 133.38208008 C-17.08626715 128.01992581 -17.09227658 122.65778622 -17.09487724 117.29562187 C-17.09673171 115.24499722 -17.10035272 113.1943734 -17.10573006 111.14375496 C-17.11293893 108.28209797 -17.11399101 105.42050243 -17.11352539 102.55883789 C-17.11712067 101.70216522 -17.12071594 100.84549255 -17.12442017 99.96286011 C-17.11405216 94.11405216 -17.11405216 94.11405216 -16 93 C-12.99668982 92.85806663 -10.00782866 92.95763622 -7 93 C-7 87.39 -7 81.78 -7 76 C-8.32 76 -9.64 76 -11 76 C-11.50833591 74.75336669 -12.00631145 73.50250613 -12.5 72.25 C-12.91765625 71.20585937 -12.91765625 71.20585937 -13.34375 70.140625 C-14 68 -14 68 -14 64 C-11.69 64 -9.38 64 -7 64 C-7 59.71 -7 55.42 -7 51 C-8.32 51 -9.64 51 -11 51 C-11.50833591 49.75336669 -12.00631145 48.50250613 -12.5 47.25 C-12.7784375 46.55390625 -13.056875 45.8578125 -13.34375 45.140625 C-14 43 -14 43 -14 39 C-11.69 39 -9.38 39 -7 39 C-6.823479 37.88963379 -6.64695801 36.77926758 -6.46508789 35.63525391 C-5.81053709 31.5235527 -5.15165791 27.41255495 -4.49145508 23.30175781 C-4.20608924 21.52102301 -3.92190439 19.74009854 -3.63891602 17.95898438 C-3.23242084 15.40183781 -2.8217111 12.84539897 -2.41015625 10.2890625 C-2.28407486 9.49005524 -2.15799347 8.69104797 -2.02809143 7.86782837 C-1.11387171 2.22774341 -1.11387171 2.22774341 0 0 Z " fill="#040403" transform="translate(49,35)"/>
<path d="M0 0 C15.18 0 30.36 0 46 0 C46 27.72 46 55.44 46 84 C30.82 84 15.64 84 0 84 C0 56.28 0 28.56 0 0 Z " fill="#BFAB7C" transform="translate(174,133)"/>
<path d="M0 0 C15.18 0 30.36 0 46 0 C46 27.72 46 55.44 46 84 C30.82 84 15.64 84 0 84 C0 56.28 0 28.56 0 0 Z " fill="#BFAB7C" transform="translate(36,133)"/>
<path d="M0 0 C7.27880614 2.77918053 12.97469278 6.64375492 17.23120117 13.26708984 C19.92142574 20.05880432 19.03065682 27.69609611 18.8125 34.875 C18.68875 40.629375 18.565 46.38375 18.4375 52.3125 C5.8975 52.3125 -6.6425 52.3125 -19.5625 52.3125 C-19.68625 46.558125 -19.81 40.80375 -19.9375 34.875 C-19.99212402 33.07748291 -20.04674805 31.27996582 -20.10302734 29.42797852 C-20.35917227 15.12076246 -20.35917227 15.12076246 -15.19335938 8.92651367 C-10.70340848 4.48294101 -6.48017662 0.56843655 0 0 Z " fill="#EAE7E0" transform="translate(128.5625,164.6875)"/>
<path d="M0 0 C27.72 0 55.44 0 84 0 C84 31.68 84 63.36 84 96 C82.68 96 81.36 96 80 96 C80.00079559 95.247686 80.00159119 94.49537201 80.00241089 93.72026062 C80.00463041 86.58595554 79.97791469 79.45259294 79.9197216 72.31854534 C79.89080533 68.6518903 79.87258401 64.98586777 79.87988281 61.3190918 C79.88653212 57.77187222 79.86368007 54.22589631 79.82144547 50.6789341 C79.80508971 48.68573407 79.81829521 46.69236077 79.83224487 44.69914246 C79.63939573 32.47376709 74.90021117 24.15925019 66.6328125 15.359375 C61.89795793 11.1162709 56.56741708 8.02470715 51 5 C50.00355469 4.43152344 49.00710937 3.86304687 47.98046875 3.27734375 C44.57184245 1.81650391 42.67264164 1.51994659 39 2 C36.42936271 3.04824876 34.15840769 4.10259655 31.75 5.4375 C31.09394775 5.79658447 30.43789551 6.15566895 29.76196289 6.52563477 C20.43892862 11.81603689 13.25491726 18.61972713 8 28 C7.48805588 28.90473053 6.97611176 29.80946106 6.44865417 30.74160767 C4.89128184 34.24453484 4.60649974 36.5630258 4.56762695 40.37255859 C4.54783279 41.61339203 4.52803864 42.85422546 4.50764465 44.13265991 C4.50087653 45.47125089 4.49442947 46.80984353 4.48828125 48.1484375 C4.47141998 49.5299335 4.4532678 50.91141429 4.43388367 52.2928772 C4.38653403 55.9128138 4.35662801 59.53268872 4.33044434 63.15283203 C4.3005624 66.85331396 4.25405849 70.55358371 4.20898438 74.25390625 C4.12312266 81.50249853 4.05570187 88.75110653 4 96 C2.68 96 1.36 96 0 96 C0 64.32 0 32.64 0 0 Z " fill="#BDA87B" transform="translate(86,121)"/>
<path d="M0 0 C22.44 0 44.88 0 68 0 C68 19.14 68 38.28 68 58 C64.37 58 60.74 58 57 58 C57.00112793 56.9262915 57.00225586 55.85258301 57.00341797 54.74633789 C56.99972008 50.72579376 56.95668543 46.70643132 56.90234375 42.6862793 C56.88428332 40.95328431 56.87659703 39.22014652 56.87988281 37.48706055 C57.10556506 23.55010027 57.10556506 23.55010027 50 12 C49.41452393 11.40968994 48.82904785 10.81937988 48.22583008 10.21118164 C44.45531537 6.62237849 40.01890169 3.5077359 35 2 C27.18945673 2.99709063 20.04655918 9.39648372 15.19140625 15.2890625 C11.96569315 19.92139803 11.66759478 23.90904114 11.5859375 29.484375 C11.56657135 30.29996887 11.5472052 31.11556274 11.5272522 31.95587158 C11.46760425 34.55380892 11.42113058 37.15179093 11.375 39.75 C11.33680658 41.51434194 11.29775405 43.27866551 11.2578125 45.04296875 C11.16191495 49.36182946 11.07782953 53.68077744 11 58 C7.37 58 3.74 58 0 58 C0 38.86 0 19.72 0 0 Z " fill="#99C863" transform="translate(94,159)"/>
<path d="M0 0 C2.00317009 1.11742582 3.95964262 2.2181952 5.86303711 3.49658203 C6.7933374 4.11774902 6.7933374 4.11774902 7.74243164 4.75146484 C8.38422363 5.18813477 9.02601563 5.62480469 9.68725586 6.07470703 C10.68474854 6.74904785 10.68474854 6.74904785 11.70239258 7.43701172 C13.59857834 8.72524944 15.48820943 10.02240522 17.37475586 11.32470703 C18.22682617 11.91251953 19.07889648 12.50033203 19.95678711 13.10595703 C24.08504847 16.07388489 27.75244256 18.89955334 30.37475586 23.32470703 C30.82542333 27.3649933 30.81472748 31.28325344 30.37475586 35.32470703 C28.59559119 37.1038717 25.99162287 36.45235538 23.58569336 36.45410156 C22.34770996 36.45725372 21.10972656 36.46040588 19.83422852 36.46365356 C18.47273727 36.46186378 17.11124635 36.45981283 15.74975586 36.45751953 C14.36352522 36.45819262 12.97729469 36.45916269 11.59106445 36.4604187 C8.68236164 36.46189543 5.77368949 36.45974193 2.86499023 36.45507812 C-0.87121012 36.44938084 -4.60733866 36.45265998 -8.34353638 36.45865059 C-11.2070368 36.46225688 -14.07052007 36.4611173 -16.934021 36.4585228 C-18.31199146 36.45785372 -19.68996346 36.4586813 -21.06793213 36.46100235 C-22.99068168 36.46352995 -24.91343666 36.45899727 -26.83618164 36.45410156 C-28.48046143 36.45290817 -28.48046143 36.45290817 -30.15795898 36.45169067 C-32.62524414 36.32470703 -32.62524414 36.32470703 -33.62524414 35.32470703 C-33.96899414 32.88330078 -33.96899414 32.88330078 -34.12524414 29.76220703 C-34.19743164 28.75029297 -34.26961914 27.73837891 -34.34399414 26.69580078 C-32.30923058 17.15231733 -22.07485014 11.72190034 -14.50024414 6.69970703 C-13.4290332 5.95591797 -12.35782227 5.21212891 -11.25415039 4.44580078 C-10.2190332 3.75357422 -9.18391602 3.06134766 -8.11743164 2.34814453 C-6.71533447 1.40334229 -6.71533447 1.40334229 -5.28491211 0.43945312 C-2.62524414 -0.67529297 -2.62524414 -0.67529297 0 0 Z " fill="#99C963" transform="translate(129.625244140625,80.67529296875)"/>
<path d="M0 0 C12.18613431 6.65240625 20.50765669 13.50156361 25.75390625 26.6171875 C3.97390625 26.6171875 -17.80609375 26.6171875 -40.24609375 26.6171875 C-34.85949747 13.15069681 -25.21161449 5.69416092 -12.984375 -1.44921875 C-8.23456061 -3.06862765 -4.50996508 -1.92121256 0 0 Z " fill="#97C562" transform="translate(135.24609375,128.3828125)"/>
<path d="M0 0 C0.89460937 -0.00128906 1.78921875 -0.00257813 2.7109375 -0.00390625 C3.65195313 -0.00003906 4.59296875 0.00382813 5.5625 0.0078125 C6.97402344 0.00201172 6.97402344 0.00201172 8.4140625 -0.00390625 C9.75597656 -0.00197266 9.75597656 -0.00197266 11.125 0 C11.95128906 0.00112793 12.77757812 0.00225586 13.62890625 0.00341797 C15.5625 0.1328125 15.5625 0.1328125 16.5625 1.1328125 C16.66130797 2.60933914 16.69329245 4.09048486 16.6953125 5.5703125 C16.69724609 6.91222656 16.69724609 6.91222656 16.69921875 8.28125 C16.69535156 9.22226563 16.69148438 10.16328125 16.6875 11.1328125 C16.69330078 12.54433594 16.69330078 12.54433594 16.69921875 13.984375 C16.69792969 14.87898437 16.69664062 15.77359375 16.6953125 16.6953125 C16.69418457 17.52160156 16.69305664 18.34789062 16.69189453 19.19921875 C16.5625 21.1328125 16.5625 21.1328125 15.5625 22.1328125 C14.08597336 22.23162047 12.60482764 22.26360495 11.125 22.265625 C9.78308594 22.26755859 9.78308594 22.26755859 8.4140625 22.26953125 C7.47304687 22.26566406 6.53203125 22.26179688 5.5625 22.2578125 C4.15097656 22.26361328 4.15097656 22.26361328 2.7109375 22.26953125 C1.81632813 22.26824219 0.92171875 22.26695312 0 22.265625 C-0.82628906 22.26449707 -1.65257812 22.26336914 -2.50390625 22.26220703 C-4.4375 22.1328125 -4.4375 22.1328125 -5.4375 21.1328125 C-5.53630797 19.65628586 -5.56829245 18.17514014 -5.5703125 16.6953125 C-5.57160156 15.80070313 -5.57289063 14.90609375 -5.57421875 13.984375 C-5.56841797 12.57285156 -5.56841797 12.57285156 -5.5625 11.1328125 C-5.56636719 10.19179687 -5.57023438 9.25078125 -5.57421875 8.28125 C-5.57292969 7.38664063 -5.57164062 6.49203125 -5.5703125 5.5703125 C-5.56862061 4.33087891 -5.56862061 4.33087891 -5.56689453 3.06640625 C-5.31741123 -0.66172161 -3.23141292 0.00441106 0 0 Z " fill="#070706" transform="translate(191.4375,181.8671875)"/>
<path d="M0 0 C0.89460938 -0.00128906 1.78921875 -0.00257813 2.7109375 -0.00390625 C3.65195312 -0.00003906 4.59296875 0.00382813 5.5625 0.0078125 C6.97402344 0.00201172 6.97402344 0.00201172 8.4140625 -0.00390625 C9.75597656 -0.00197266 9.75597656 -0.00197266 11.125 0 C11.95128906 0.00112793 12.77757813 0.00225586 13.62890625 0.00341797 C15.5625 0.1328125 15.5625 0.1328125 16.5625 1.1328125 C16.66130797 2.60933914 16.69329245 4.09048486 16.6953125 5.5703125 C16.69724609 6.91222656 16.69724609 6.91222656 16.69921875 8.28125 C16.69535156 9.22226563 16.69148438 10.16328125 16.6875 11.1328125 C16.69330078 12.54433594 16.69330078 12.54433594 16.69921875 13.984375 C16.69792969 14.87898437 16.69664063 15.77359375 16.6953125 16.6953125 C16.69418457 17.52160156 16.69305664 18.34789062 16.69189453 19.19921875 C16.5625 21.1328125 16.5625 21.1328125 15.5625 22.1328125 C14.08597336 22.23162047 12.60482764 22.26360495 11.125 22.265625 C9.78308594 22.26755859 9.78308594 22.26755859 8.4140625 22.26953125 C7.47304688 22.26566406 6.53203125 22.26179688 5.5625 22.2578125 C4.15097656 22.26361328 4.15097656 22.26361328 2.7109375 22.26953125 C1.81632812 22.26824219 0.92171875 22.26695312 0 22.265625 C-0.82628906 22.26449707 -1.65257812 22.26336914 -2.50390625 22.26220703 C-4.4375 22.1328125 -4.4375 22.1328125 -5.4375 21.1328125 C-5.53630797 19.65628586 -5.56829245 18.17514014 -5.5703125 16.6953125 C-5.57160156 15.80070313 -5.57289062 14.90609375 -5.57421875 13.984375 C-5.56841797 12.57285156 -5.56841797 12.57285156 -5.5625 11.1328125 C-5.56636719 10.19179687 -5.57023437 9.25078125 -5.57421875 8.28125 C-5.57292969 7.38664063 -5.57164063 6.49203125 -5.5703125 5.5703125 C-5.56862061 4.33087891 -5.56862061 4.33087891 -5.56689453 3.06640625 C-5.31741123 -0.66172161 -3.23141292 0.00441106 0 0 Z " fill="#070706" transform="translate(53.4375,181.8671875)"/>
<path d="M0 0 C0.89460937 -0.00128906 1.78921875 -0.00257813 2.7109375 -0.00390625 C3.65195313 -0.00003906 4.59296875 0.00382813 5.5625 0.0078125 C6.97402344 0.00201172 6.97402344 0.00201172 8.4140625 -0.00390625 C9.75597656 -0.00197266 9.75597656 -0.00197266 11.125 0 C11.95128906 0.00112793 12.77757812 0.00225586 13.62890625 0.00341797 C15.5625 0.1328125 15.5625 0.1328125 16.5625 1.1328125 C16.66130797 2.60933914 16.69329245 4.09048486 16.6953125 5.5703125 C16.69724609 6.91222656 16.69724609 6.91222656 16.69921875 8.28125 C16.69535156 9.22226563 16.69148438 10.16328125 16.6875 11.1328125 C16.69330078 12.54433594 16.69330078 12.54433594 16.69921875 13.984375 C16.69792969 14.87898437 16.69664062 15.77359375 16.6953125 16.6953125 C16.69418457 17.52160156 16.69305664 18.34789062 16.69189453 19.19921875 C16.5625 21.1328125 16.5625 21.1328125 15.5625 22.1328125 C14.08597336 22.23162047 12.60482764 22.26360495 11.125 22.265625 C9.78308594 22.26755859 9.78308594 22.26755859 8.4140625 22.26953125 C7.47304687 22.26566406 6.53203125 22.26179688 5.5625 22.2578125 C4.15097656 22.26361328 4.15097656 22.26361328 2.7109375 22.26953125 C1.81632813 22.26824219 0.92171875 22.26695312 0 22.265625 C-0.82628906 22.26449707 -1.65257812 22.26336914 -2.50390625 22.26220703 C-4.4375 22.1328125 -4.4375 22.1328125 -5.4375 21.1328125 C-5.53630797 19.65628586 -5.56829245 18.17514014 -5.5703125 16.6953125 C-5.57160156 15.80070313 -5.57289063 14.90609375 -5.57421875 13.984375 C-5.56841797 12.57285156 -5.56841797 12.57285156 -5.5625 11.1328125 C-5.56636719 10.19179687 -5.57023438 9.25078125 -5.57421875 8.28125 C-5.57292969 7.38664063 -5.57164062 6.49203125 -5.5703125 5.5703125 C-5.56862061 4.33087891 -5.56862061 4.33087891 -5.56689453 3.06640625 C-5.31741123 -0.66172161 -3.23141292 0.00441106 0 0 Z " fill="#070706" transform="translate(191.4375,145.8671875)"/>
<path d="M0 0 C0.89460938 -0.00128906 1.78921875 -0.00257813 2.7109375 -0.00390625 C3.65195312 -0.00003906 4.59296875 0.00382813 5.5625 0.0078125 C6.97402344 0.00201172 6.97402344 0.00201172 8.4140625 -0.00390625 C9.75597656 -0.00197266 9.75597656 -0.00197266 11.125 0 C11.95128906 0.00112793 12.77757813 0.00225586 13.62890625 0.00341797 C15.5625 0.1328125 15.5625 0.1328125 16.5625 1.1328125 C16.66130797 2.60933914 16.69329245 4.09048486 16.6953125 5.5703125 C16.69724609 6.91222656 16.69724609 6.91222656 16.69921875 8.28125 C16.69535156 9.22226563 16.69148438 10.16328125 16.6875 11.1328125 C16.69330078 12.54433594 16.69330078 12.54433594 16.69921875 13.984375 C16.69792969 14.87898437 16.69664063 15.77359375 16.6953125 16.6953125 C16.69418457 17.52160156 16.69305664 18.34789062 16.69189453 19.19921875 C16.5625 21.1328125 16.5625 21.1328125 15.5625 22.1328125 C14.08597336 22.23162047 12.60482764 22.26360495 11.125 22.265625 C9.78308594 22.26755859 9.78308594 22.26755859 8.4140625 22.26953125 C7.47304688 22.26566406 6.53203125 22.26179688 5.5625 22.2578125 C4.15097656 22.26361328 4.15097656 22.26361328 2.7109375 22.26953125 C1.81632812 22.26824219 0.92171875 22.26695312 0 22.265625 C-0.82628906 22.26449707 -1.65257812 22.26336914 -2.50390625 22.26220703 C-4.4375 22.1328125 -4.4375 22.1328125 -5.4375 21.1328125 C-5.53630797 19.65628586 -5.56829245 18.17514014 -5.5703125 16.6953125 C-5.57160156 15.80070313 -5.57289062 14.90609375 -5.57421875 13.984375 C-5.56841797 12.57285156 -5.56841797 12.57285156 -5.5625 11.1328125 C-5.56636719 10.19179687 -5.57023437 9.25078125 -5.57421875 8.28125 C-5.57292969 7.38664063 -5.57164063 6.49203125 -5.5703125 5.5703125 C-5.56862061 4.33087891 -5.56862061 4.33087891 -5.56689453 3.06640625 C-5.31741123 -0.66172161 -3.23141292 0.00441106 0 0 Z " fill="#070706" transform="translate(53.4375,145.8671875)"/>
<path d="M0 0 C4.62 0 9.24 0 14 0 C14 4.62 14 9.24 14 14 C9.38 14 4.76 14 0 14 C0 9.38 0 4.76 0 0 Z " fill="#EAE7E0" transform="translate(190,186)"/>
<path d="M0 0 C4.62 0 9.24 0 14 0 C14 4.62 14 9.24 14 14 C9.38 14 4.76 14 0 14 C0 9.38 0 4.76 0 0 Z " fill="#EAE7E0" transform="translate(52,186)"/>
<path d="M0 0 C4.62 0 9.24 0 14 0 C14 4.62 14 9.24 14 14 C9.38 14 4.76 14 0 14 C0 9.38 0 4.76 0 0 Z " fill="#EAE7E0" transform="translate(190,150)"/>
<path d="M0 0 C4.62 0 9.24 0 14 0 C14 4.62 14 9.24 14 14 C9.38 14 4.76 14 0 14 C0 9.38 0 4.76 0 0 Z " fill="#EAE7E0" transform="translate(52,150)"/>
<path d="M0 0 C3.3 0 6.6 0 10 0 C10 5.94 10 11.88 10 18 C6.7 18 3.4 18 0 18 C0 12.06 0 6.12 0 0 Z " fill="#97C462" transform="translate(200,111)"/>
<path d="M0 0 C3.3 0 6.6 0 10 0 C10 5.94 10 11.88 10 18 C6.7 18 3.4 18 0 18 C0 12.06 0 6.12 0 0 Z " fill="#97C462" transform="translate(46,111)"/>
<path d="M0 0 C3.3 0 6.6 0 10 0 C10 4.62 10 9.24 10 14 C6.7 14 3.4 14 0 14 C0 9.38 0 4.76 0 0 Z " fill="#94C161" transform="translate(200,86)"/>
<path d="M0 0 C3.3 0 6.6 0 10 0 C10 4.62 10 9.24 10 14 C6.7 14 3.4 14 0 14 C0 9.38 0 4.76 0 0 Z " fill="#94C161" transform="translate(46,86)"/>
<path d="M0 0 C0.66 0.33 1.32 0.66 2 1 C2.34375 3.00390625 2.34375 3.00390625 2.5 5.5625 C2.76141841 8.89914958 3.15895238 11.96505745 4.0625 15.1875 C5.01910766 19.07770449 5.16507509 22.03819789 5 26 C2.36 26 -0.28 26 -3 26 C-2.45520982 17.24034738 -1.45892001 8.65437017 0 0 Z " fill="#89B15A" transform="translate(204,49)"/>
<path d="M0 0 C3.9849662 6.88160129 4.36380287 16.17823833 4 24 C1.36 24 -1.28 24 -4 24 C-2.73333333 2.73333333 -2.73333333 2.73333333 0 0 Z " fill="#8BB45C" transform="translate(51,51)"/>
<path d="M0 0 C6.6 0 13.2 0 20 0 C20 0.99 20 1.98 20 3 C13.4 3 6.8 3 0 3 C0 2.01 0 1.02 0 0 Z " fill="#AC9A71" transform="translate(195,104)"/>
<path d="M0 0 C6.6 0 13.2 0 20 0 C20 0.99 20 1.98 20 3 C13.4 3 6.8 3 0 3 C0 2.01 0 1.02 0 0 Z " fill="#B4A075" transform="translate(195,79)"/>
<path d="M0 0 C6.6 0 13.2 0 20 0 C20 0.99 20 1.98 20 3 C13.73 3 7.46 3 1 3 C0.67 2.01 0.34 1.02 0 0 Z " fill="#AE9C72" transform="translate(41,104)"/>
<path d="M0 0 C6.6 0 13.2 0 20 0 C20 0.99 20 1.98 20 3 C13.73 3 7.46 3 1 3 C0.67 2.01 0.34 1.02 0 0 Z " fill="#B5A277" transform="translate(41,79)"/>
</svg>
